<svg xmlns="http://www.w3.org/2000/svg" viewBox="0 0 16 16">
<defs id="defs1">
<style type="text/css" id="current-color-scheme">
.ColorScheme-Text {
color:#000;
}
</style>
</defs>
<path style="fill:currentColor;fill-opacity:1;stroke:none" d="m 8,2 c -3.31371,0 -6,2.6863 -6,6 0,3.3137 2.68629,6 6,6 3.31371,0 6,-2.6863 6,-6 0,-3.3137 -2.68629,-6 -6,-6 z  m 0,1 c 2.76142,0 5,2.23858 5,5 0,1.19964 -0.451963,2.26338 -1.15625,3.125 l -6.9688,-6.9688 c 0.861617,-0.704287 1.92537,-1.15625 3.125,-1.15625 z  m -3.8438,1.875 l 6.9688,6.9688 c -0.861616,0.704287 -1.92536,1.15625 -3.125,1.15625 -2.76142,0 -5,-2.23858 -5,-5 0,-1.19963 0.451963,-2.26338 1.15625,-3.125 z " class="ColorScheme-Text"/>
</svg>
