<svg width="16" version="1.0" xmlns="http://www.w3.org/2000/svg" height="16" xmlns:xlink="http://www.w3.org/1999/xlink">
<defs>
<linearGradient id="ButtonColor-6" y1="21" x1="10.31979" y2="1" x2="10.31979" gradientUnits="userSpaceOnUse">
<stop offset="0" style="stop-color:#c8c8c8"/>
<stop offset="1" style="stop-color:#e6e6e6"/>
</linearGradient>
<linearGradient gradientTransform="matrix(0.1904762,0,0,0.1904762,-1.1428572,-1.1428572)" xlink:href="#ButtonColor-6" id="linearGradient3023" y1="90" x1="48" y2="5.9877172" x2="48"/>
</defs>
<path style="opacity:.7;fill:url(#linearGradient3023)" d="m 3,1 h 10 c 1.108,0 2,0.892 2,2 v 10 c 0,1.108 -0.892,2 -2,2 H 3 C 1.892,15 1,14.108 1,13 V 3 C 1,1.892 1.892,1 3,1 Z"/>
<g style="fill:#333;fill-rule:evenodd">
<path d="m 2.8691,3 v 4.80078 h 1.59961 v -2.07031 l 2.0684,2.0703 1.1309,-1.1328 -2.0684,-2.0684 h 2.06836 v -1.59961 Z "/>
<path d="m 10.3984,6.8 c -1.88509,0 -3.59844,1.7152 -3.59844,3.6 0,1.8848 1.71335,3.59988 3.59844,3.6 1.88509,0 3.60155,-1.71498 3.60155,-3.6 0,-1.88501 -1.71648,-3.60011 -3.60155,-3.6 Z  m 0,1.6 c 1.04727,-6.24e-05 2.00156,0.952767 2.00156,2 0,1.04723 -0.954295,2 -2.00156,2 -1.04727,-6.3e-05 -1.99844,-0.952887 -1.99844,-2 0,-1.04711 0.951167,-2 1.99844,-2 z "/>
</g>
</svg>
