<svg width="16" version="1.0" xmlns="http://www.w3.org/2000/svg" height="16" xmlns:xlink="http://www.w3.org/1999/xlink">
<defs>
<linearGradient id="ButtonColor-6" y1="21" x1="10.31979" y2="0.99929649" x2="10.31979" gradientUnits="userSpaceOnUse">
<stop offset="0" style="stop-color:#c8c8c8"/>
<stop offset="1" style="stop-color:#e6e6e6"/>
</linearGradient>
<linearGradient gradientTransform="matrix(0.1904762,0,0,0.1904762,-0.1428572,-0.1428572)" xlink:href="#ButtonColor-6" id="linearGradient3023" y1="90" x1="48" y2="5.9877172" x2="48"/>
</defs>
<path style="opacity:.7;fill:url(#linearGradient3023)" d="m 4,2 h 10 c 1.108,0 2,0.892 2,2 v 10 c 0,1.108 -0.892,2 -2,2 H 4 C 2.892,16 2,15.108 2,14 V 4 C 2,2.892 2.892,2 4,2 Z"/>
<path d="M 9,3 C 7.34314,3 6,4.34314 6,6 V 9 H 4 v 6 H 14 V 9 H 12 V 6 C 12,4.34314 10.65686,3 9,3 Z m 0,1 c 1.10457,0 2,0.89543 2,2 V 9 H 7 V 6 C 7,4.89543 7.89543,4 9,4 Z"/>
</svg>
