<svg width="16" version="1.1" xmlns="http://www.w3.org/2000/svg" height="16">
<defs id="defs1">
<style type="text/css" id="current-color-scheme">
.ColorScheme-Text {
color:#000;
}
</style>
</defs>
<path style="fill:currentColor;fill-opacity:1;stroke:none" d="m 8,.0586 l -2.2656,3.4121 -3.4121,-1.1484 1.1484,3.4121 -3.4121,2.2656 3.4121,2.2637 -1.1484,3.4141 3.4121,-1.1484 2.2656,3.4121 2.2637,-3.4121 3.4141,1.1484 -1.1484,-3.4141 3.4121,-2.2637 -3.4121,-2.2656 1.1484,-3.4121 -3.4141,1.1484 -2.2637,-3.4121 z  m -.9922,4.0332 h 1.98438 v 4.93164 h -1.98438 v -4.93164 z  m 1.0234,5.6445 c 0.702469,0 1.27148,0.570968 1.27148,1.27344 0,0.702468 -0.569016,1.27148 -1.27148,1.27148 -0.702469,0 -1.27148,-0.569016 -1.27148,-1.27148 0,-0.70247 0.569016,-1.27344 1.27148,-1.27344 z " class="ColorScheme-Text"/>
</svg>
